<svg width="49" height="32" viewBox="0 0 49 32" fill="none" xmlns="http://www.w3.org/2000/svg">
<path d="M32.2303 14.2948C33.4983 13.906 34.7286 13.6373 35.8637 13.4537C35.8143 11.4148 35.5417 9.72984 35.3445 8.76172C34.5319 9.06115 33.2193 9.60023 31.7291 10.4107C31.9762 11.3704 32.1442 12.3687 32.2053 13.396C32.2239 13.697 32.2319 13.9965 32.2303 14.2948Z" fill="#060606"/>
<path d="M37.0148 22.1912C38.2371 19.7328 38.9126 17.3156 39.2389 15.6746C34.7557 15.8671 25.0665 14.8561 21.7328 27.947C21.5085 28.8278 21.0977 30.0637 20.7645 31.0043C21.7918 30.8625 31.7297 32.8215 37.0148 22.1912Z" fill="#060606"/>
<path d="M39.0476 21.9314C38.8913 22.2758 38.7271 22.6223 38.5496 22.9694C36.5886 26.8048 33.9139 29.4796 30.5632 30.9746C40.1418 32.0787 48.2 26.1822 48.2 26.1822C48.2 26.1822 44.4401 23.355 39.0476 21.9314Z" fill="#060606"/>
<path d="M22.9407 20.1708C24.6982 18.0658 26.9908 16.3983 29.8085 15.1831C30.0344 15.0857 30.2597 14.9937 30.484 14.9059C30.5111 14.443 30.5143 13.9764 30.4866 13.506C30.1215 7.29893 25.2419 2.06311 23.554 0.428406C22.4811 1.49599 20.1045 4.07977 18.4751 7.46875C17.1927 10.1366 16.631 12.7125 16.7835 15.1841C19.3333 16.4284 21.39 18.0959 22.9407 20.1708Z" fill="#060606"/>
<path d="M8.34269 22.5255C8.3039 22.4514 8.26776 22.379 8.23056 22.3054C3.4726 23.819 3.72291 23.6597 0.370605 26.1822C0.370605 26.1822 8.16254 31.884 17.5281 31.0254C13.6533 29.5732 10.5699 26.7228 8.34269 22.5255Z" fill="#060606"/>
<path d="M7.54608 15.3307C7.90321 16.9416 8.59195 19.3222 9.8658 21.7235C12.1069 25.9478 15.2796 28.6628 19.3036 29.8034C19.3966 29.5473 19.9408 25.2315 21.9225 21.9309C18.736 16.1782 11.0695 15.4074 7.54608 15.3307Z" fill="#060606"/>
<path d="M15.5379 10.5191C13.9638 9.64516 12.5703 9.07328 11.7206 8.76062C11.5293 9.71076 11.2635 11.3497 11.2051 13.3304C12.4396 13.5817 13.7464 13.9367 15.0559 14.4361C15.0506 13.15 15.2084 11.8422 15.5379 10.5191Z" fill="#060606"/>
</svg>
